<svg width="357" height="372" viewBox="0 0 357 372" fill="none" xmlns="http://www.w3.org/2000/svg">
<g filter="url(#filter0_d_18_3)">
<path d="M279.15 64.0999C312.5 73.6699 347.59 95.7099 351.07 124.13C354.84 152.26 327 186.77 311.05 221.28C294.81 256.08 290.46 290.88 270.74 306.25C251.31 321.62 216.51 317.56 173.01 330.03C129.22 342.5 76.73 371.5 45.7 359.9C14.67 348.01 5.39 295.81 5.97 251.15C6.26 206.49 16.12 169.37 19.89 121.81C23.66 74.5399 21.34 16.5399 47.15 4.35994C73.25 -7.53006 127.77 26.1099 170.69 41.7699C213.9 57.1399 245.8 54.2399 279.15 64.0999Z" fill="#FEDB39"/>
</g>
<defs>
<filter id="filter0_d_18_3" x="0.944702" y="0.865967" width="355.472" height="370.718" filterUnits="userSpaceOnUse" color-interpolation-filters="sRGB">
<feFlood flood-opacity="0" result="BackgroundImageFix"/>
<feColorMatrix in="SourceAlpha" type="matrix" values="0 0 0 0 0 0 0 0 0 0 0 0 0 0 0 0 0 0 127 0" result="hardAlpha"/>
<feOffset dy="4"/>
<feGaussianBlur stdDeviation="2.5"/>
<feComposite in2="hardAlpha" operator="out"/>
<feColorMatrix type="matrix" values="0 0 0 0 0 0 0 0 0 0 0 0 0 0 0 0 0 0 0.25 0"/>
<feBlend mode="normal" in2="BackgroundImageFix" result="effect1_dropShadow_18_3"/>
<feBlend mode="normal" in="SourceGraphic" in2="effect1_dropShadow_18_3" result="shape"/>
</filter>
</defs>
</svg>
