<svg width="373" height="388" viewBox="0 0 373 388" fill="none" xmlns="http://www.w3.org/2000/svg">
<g filter="url(#filter0_d_18_5)">
<path d="M287.15 72.0999C320.5 81.6699 355.59 103.71 359.07 132.13C362.84 160.26 335 194.77 319.05 229.28C302.81 264.08 298.46 298.88 278.74 314.25C259.31 329.62 224.51 325.56 181.01 338.03C137.22 350.5 84.73 379.5 53.7 367.9C22.67 356.01 13.39 303.81 13.97 259.15C14.26 214.49 24.12 177.37 27.89 129.81C31.66 82.5399 29.34 24.5399 55.15 12.3599C81.25 0.46994 135.77 34.1099 178.69 49.7699C221.9 65.1399 253.8 62.2399 287.15 72.0999Z" fill="#FEDB39"/>
</g>
<defs>
<filter id="filter0_d_18_5" x="0.944702" y="0.865967" width="371.472" height="386.718" filterUnits="userSpaceOnUse" color-interpolation-filters="sRGB">
<feFlood flood-opacity="0" result="BackgroundImageFix"/>
<feColorMatrix in="SourceAlpha" type="matrix" values="0 0 0 0 0 0 0 0 0 0 0 0 0 0 0 0 0 0 127 0" result="hardAlpha"/>
<feOffset dy="4"/>
<feGaussianBlur stdDeviation="6.5"/>
<feComposite in2="hardAlpha" operator="out"/>
<feColorMatrix type="matrix" values="0 0 0 0 0 0 0 0 0 0 0 0 0 0 0 0 0 0 0.25 0"/>
<feBlend mode="normal" in2="BackgroundImageFix" result="effect1_dropShadow_18_5"/>
<feBlend mode="normal" in="SourceGraphic" in2="effect1_dropShadow_18_5" result="shape"/>
</filter>
</defs>
</svg>
